<svg width="26" height="27" viewBox="0 0 26 27" fill="none"
  xmlns="http://www.w3.org/2000/svg">
  <path d="M22.9452 14.6755C22.9954 14.2576 23.0288 13.823 23.0288 13.3717C23.0288 12.9204 22.9954 12.4859 22.9285 12.068L25.7533 9.86166C26.004 9.66108 26.0709 9.29336 25.9204 9.00921L23.2461 4.37924C23.079 4.07838 22.7279 3.97809 22.4271 4.07838L19.1009 5.41555C18.3988 4.88068 17.6634 4.4461 16.8444 4.11181L16.3429 0.568299C16.2928 0.234005 16.0086 0 15.6744 0H10.3257C9.99136 0 9.72392 0.234005 9.67378 0.568299L9.17234 4.11181C8.35332 4.4461 7.60116 4.8974 6.91586 5.41555L3.58964 4.07838C3.28877 3.96138 2.93776 4.07838 2.77062 4.37924L0.0962688 9.00921C-0.070878 9.31007 -0.00401906 9.66108 0.263416 9.86166L3.0882 12.068C3.02134 12.4859 2.97119 12.9372 2.97119 13.3717C2.97119 13.8063 3.00462 14.2576 3.07148 14.6755L0.246701 16.8818C-0.00401946 17.0824 -0.070878 17.4501 0.0795541 17.7343L2.7539 22.3642C2.92105 22.6651 3.27206 22.7654 3.57292 22.6651L6.89914 21.3279C7.60116 21.8628 8.33661 22.2974 9.15562 22.6317L9.65707 26.1752C9.72392 26.5095 9.99136 26.7435 10.3257 26.7435H15.6744C16.0086 26.7435 16.2928 26.5095 16.3262 26.1752L16.8277 22.6317C17.6467 22.2974 18.3988 21.8461 19.0841 21.3279L22.4104 22.6651C22.7112 22.7821 23.0622 22.6651 23.2294 22.3642L25.9037 17.7343C26.0709 17.4334 26.004 17.0824 25.7366 16.8818L22.9452 14.6755ZM13 18.3861C10.2421 18.3861 7.9856 16.1297 7.9856 13.3717C7.9856 10.6138 10.2421 8.35734 13 8.35734C15.7579 8.35734 18.0144 10.6138 18.0144 13.3717C18.0144 16.1297 15.7579 18.3861 13 18.3861Z" fill="transparent"/>
</svg>
